<?xml version="1.0" encoding="utf-8"?>
<!-- Generator: Adobe Illustrator 18.0.0, SVG Export Plug-In . SVG Version: 6.00 Build 0)  -->
<!DOCTYPE svg PUBLIC "-//W3C//DTD SVG 1.1//EN" "http://www.w3.org/Graphics/SVG/1.1/DTD/svg11.dtd">
<svg version="1.1" id="Layer_1" xmlns="http://www.w3.org/2000/svg" xmlns:xlink="http://www.w3.org/1999/xlink" x="0px" y="0px"
	 viewBox="0 0 53 53" enable-background="new 0 0 53 53" xml:space="preserve">
<path d="M46.2,3.4"/>
<path d="M33.9,48c13.4-2.3,8.4-15,8.4-15c-0.5,1.7-2.2,3.2-3.7,4.3c0.2-1.7,1.9-8.4-4.4-18.6c0,0-0.2,5-1.8,8
	C31.9,20,26.3,2.5,26.3,2.5s-6,20.5-6.2,24.2C18.6,23,19,18.9,19,18.9c-6.8,11.2-4.8,18.2-4.8,18.4c0,0.1,0,0.1,0,0.2
	c-1.4-1.2-3.1-2.9-3.5-4.7c0,0-5.1,11.6,8.4,15.1l7.6,2.6L33.9,48z M32.6,42c-0.4,3.2-5.9,5.9-5.9,5.9s-5.9-2.7-5.9-5.9
	c0-1.4-1-3.5,2.3-8.9c0,0-0.2,2,0.6,3.8c0.1-1.8,3-11.7,3-11.7s2.7,8.5,3,11.7c0.7-1.5,0.8-3.9,0.8-3.9C33.5,37.9,32.7,41.2,32.6,42
	z"/>
</svg>
