<?xml version="1.0" encoding="utf-8"?>
<!-- Generator: Adobe Illustrator 18.0.0, SVG Export Plug-In . SVG Version: 6.00 Build 0)  -->
<!DOCTYPE svg PUBLIC "-//W3C//DTD SVG 1.1//EN" "http://www.w3.org/Graphics/SVG/1.1/DTD/svg11.dtd">
<svg version="1.1" id="Layer_1" xmlns="http://www.w3.org/2000/svg" xmlns:xlink="http://www.w3.org/1999/xlink" x="0px" y="0px"
	 viewBox="0 0 53 53" enable-background="new 0 0 53 53" xml:space="preserve">
<path d="M41.9,25.4c0-0.5-0.4-0.9-0.9-0.9c-0.2,0-0.4,0-0.6,0c-1.1,0-1.9,1.3-1.9,1.3c0,0.1-0.2,0.3-0.3,0.5
	c-0.1-0.5-0.2-0.9-0.3-1.3c-0.5-1.7-1.2-3.3-2.3-4.8c-0.7-1-1.7-1.4-2.9-1.6c-2.1-0.3-4.1-0.4-6.2-0.4c-2.1,0-4.2,0-6.2,0.4
	c-1.1,0.2-2.2,0.6-2.9,1.6c-1,1.5-1.8,3-2.3,4.8c-0.1,0.4-0.2,0.8-0.3,1.3c-0.1-0.2-0.2-0.4-0.3-0.5c0,0-0.8-1.3-1.9-1.3
	c-0.2,0-0.4,0-0.6,0c-0.5,0-0.9,0.4-0.9,0.9c0,0.4,0,0.8,0,1.2c0,0.6,0.4,1,1,1c0.6,0,1.2,0,1.7,0c0.2,0,0.4,0,0.7,0c0,0,0,0,0,0.1
	c0,0-0.1,0-0.2,0.1C12.7,29.2,12,31,12,33c0,1.2,0.1,2.4,0.2,3.7c0.1,0.9,0.3,1.9,0.7,2.7c0.2,0.3,0.4,0.6,0.8,0.7
	c0.2,0,0.2,0.1,0.2,0.3c0,0.5,0,1,0,1.5c0,0.7,0.4,1.1,1.1,1.1c0.6,0,1.2,0,1.8,0c0.8,0,1.2-0.4,1.2-1.2c0-0.4,0-0.8,0-1.2
	c2.7,0.2,5.5,0.3,8.3,0.3s5.5-0.1,8.3-0.3c0,0.4,0,0.8,0,1.2c0,0.8,0.4,1.2,1.2,1.2c0.6,0,1.2,0,1.8,0c0.7,0,1.1-0.4,1.1-1.1
	c0-0.5,0-1,0-1.5c0-0.1,0-0.3,0.2-0.3c0.4-0.1,0.6-0.3,0.8-0.7c0.4-0.9,0.6-1.8,0.7-2.7c0.1-1.2,0.2-2.4,0.2-3.7
	c0-2.1-0.8-3.8-2.2-5.1c0,0-0.1-0.1-0.2-0.1c0,0,0,0,0-0.1c0.2,0,0.4,0,0.7,0c0.6,0,1.2,0,1.7,0c0.6,0,1-0.4,1-1
	C41.9,26.2,41.9,25.8,41.9,25.4z M16.6,26.6c0.4-1.8,1.1-3.6,2.1-5.2c0-0.1,0.1-0.1,0.2-0.2l0,0l0,0c0,0,0.1-0.1,0.2-0.1
	c0.6-0.2,2.4-0.8,7.4-0.8c4.9,0,6.8,0.6,7.4,0.8c0.1,0,0.2,0,0.2,0.1l0,0l0,0c0,0,0.1,0.1,0.2,0.2c1,1.6,1.7,3.4,2.1,5.2
	c0,0.1,0,0.2,0,0.3c-3.3-0.3-6.7-0.4-10-0.4c-3.3,0-6.7,0.1-10,0.4C16.6,26.9,16.6,26.7,16.6,26.6z M17.1,34.4c-1.2,0-2.2-1-2.2-2.2
	c0-1.2,1-2.2,2.2-2.2c1.2,0,2.2,1,2.2,2.2C19.3,33.5,18.3,34.4,17.1,34.4z M35.9,34.4c-1.2,0-2.2-1-2.2-2.2c0-1.2,1-2.2,2.2-2.2
	c1.2,0,2.2,1,2.2,2.2C38.1,33.5,37.1,34.4,35.9,34.4z M49.6,44.2h-1.2c-0.5,0-0.9-0.4-0.9-0.9V17c0-2.9-2.4-5.2-5.2-5.2H10.7
	c-2.9,0-5.2,2.4-5.2,5.2v26.3c0,0.5-0.4,0.9-0.9,0.9H3.4c-0.5,0-0.9-0.4-0.9-0.9V17c0-4.6,3.7-8.2,8.2-8.2h31.5
	c4.6,0,8.2,3.7,8.2,8.2v26.3C50.5,43.8,50.1,44.2,49.6,44.2z"/>
</svg>
