<?xml version="1.0" encoding="utf-8"?>
<!-- Generator: Adobe Illustrator 18.0.0, SVG Export Plug-In . SVG Version: 6.00 Build 0)  -->
<!DOCTYPE svg PUBLIC "-//W3C//DTD SVG 1.1//EN" "http://www.w3.org/Graphics/SVG/1.1/DTD/svg11.dtd">
<svg version="1.1" id="Layer_1" xmlns="http://www.w3.org/2000/svg" xmlns:xlink="http://www.w3.org/1999/xlink" x="0px" y="0px"
	 viewBox="0 0 53 53" enable-background="new 0 0 53 53" xml:space="preserve">
<path d="M44.8,17.3c-5.3-9.6-17.4-13.1-27-7.8C11.5,13,7.6,19.7,7.6,26.8l-4-4c-0.5-0.5-1.3-0.5-1.8,0s-0.5,1.3,0,1.8L8,30.8
	c0.3,0.3,0.6,0.4,0.9,0.4c0.3,0,0.6-0.1,0.9-0.4l6.5-6.5c0.5-0.5,0.5-1.3,0-1.8c-0.5-0.5-1.3-0.5-1.8,0l-4.2,4.2
	c0.1-6.2,3.4-12,8.9-15c4-2.2,8.7-2.8,13.1-1.5s8.1,4.2,10.4,8.2c2.2,4,2.8,8.7,1.5,13.1C42.9,36,40,39.7,35.9,42
	c-4,2.2-8.7,2.8-13.1,1.5c-4.4-1.3-8.1-4.2-10.4-8.2c-0.3-0.6-1.1-0.8-1.7-0.5c-0.6,0.3-0.8,1.2-0.5,1.7c2.6,4.7,6.8,8,11.9,9.5
	c1.8,0.5,3.7,0.8,5.6,0.8c3.3,0,6.6-0.8,9.6-2.5c4.7-2.6,8-6.8,9.5-11.9C48,27.3,47.3,21.9,44.8,17.3z"/>
<path d="M27.3,14.6c-0.7,0-1.3,0.6-1.3,1.3v11.9c0,0.3,0.1,0.6,0.4,0.9l5.7,5.7c0.3,0.3,0.6,0.4,0.9,0.4c0.3,0,0.6-0.1,0.9-0.4
	c0.5-0.5,0.5-1.3,0-1.8l-5.4-5.4V15.9C28.6,15.2,28,14.6,27.3,14.6z"/>
</svg>
