<?xml version="1.0" encoding="utf-8"?>
<!-- Generator: Adobe Illustrator 18.0.0, SVG Export Plug-In . SVG Version: 6.00 Build 0)  -->
<!DOCTYPE svg PUBLIC "-//W3C//DTD SVG 1.1//EN" "http://www.w3.org/Graphics/SVG/1.1/DTD/svg11.dtd">
<svg version="1.1" id="Layer_1" xmlns="http://www.w3.org/2000/svg" xmlns:xlink="http://www.w3.org/1999/xlink" x="0px" y="0px"
	 viewBox="0 0 53 53" enable-background="new 0 0 53 53" xml:space="preserve">
<g>
	<path d="M8.6,19.3c-3.9,0-7.1,3.2-7.1,7.1s3.2,7.1,7.1,7.1s7-3.2,7-7.1C15.6,22.4,12.4,19.3,8.6,19.3z"/>
	<path d="M8.6,2.9c-3.9,0-7.1,3.2-7.1,7.1S4.7,17,8.6,17s7-3.2,7-7.1C15.6,5.9,12.4,2.9,8.6,2.9z"/>
	<path d="M8.6,35.9c-3.9,0-7.1,3.2-7.1,7.1s3.2,7.1,7.1,7.1s7-3.2,7-7.1C15.6,39,12.4,35.9,8.6,35.9z M8.6,47.3
		c-2.4,0-4.3-1.9-4.3-4.3c0-2.4,1.9-4.3,4.3-4.3s4.3,1.9,4.3,4.3C12.9,45.3,10.9,47.3,8.6,47.3z"/>
	<g>
		<path d="M19.4,6.9c0-0.7,0.5-1.2,1-1.2h29.2c0.5,0,1,0.5,1,1.2v0.9c0,0.7-0.5,1.2-1,1.2H20.4c-0.5,0-1-0.5-1-1.2V6.9z"/>
	</g>
	<g>
		<path d="M19.4,11.4c0-0.6,0.5-1.2,1-1.2h23c0.5,0,1,0.6,1,1.2v0.9c0,0.7-0.5,1.2-1,1.2h-23c-0.5,0-1-0.5-1-1.2
			C19.4,12.3,19.4,11.4,19.4,11.4z"/>
	</g>
	<g>
		<path d="M19.4,23c0-0.6,0.5-1.2,1-1.2h29.2c0.5,0,1,0.6,1,1.2v0.9c0,0.6-0.5,1.2-1,1.2H20.4c-0.5,0-1-0.6-1-1.2V23z"/>
	</g>
	<g>
		<path d="M19.4,27.7c0-0.6,0.5-1.2,1-1.2h23c0.5,0,1,0.6,1,1.2v0.9c0,0.6-0.5,1.2-1,1.2h-23c-0.5,0-1-0.6-1-1.2
			C19.4,28.5,19.4,27.7,19.4,27.7z"/>
	</g>
	<g>
		<path d="M20.3,40.2c0-0.6,0.4-1.2,1-1.2h29.2c0.5,0,1,0.6,1,1.2v0.9c0,0.7-0.5,1.2-1,1.2H21.3c-0.6,0-1-0.5-1-1.2V40.2z"/>
	</g>
	<g>
		<path d="M20.3,44.7c0-0.6,0.4-1.2,1-1.2h23c0.6,0,1,0.6,1,1.2v0.9c0,0.7-0.4,1.2-1,1.2h-23c-0.6,0-1-0.5-1-1.2V44.7z"/>
	</g>
</g>
</svg>
