<?xml version="1.0" encoding="utf-8"?>
<!-- Generator: Adobe Illustrator 18.0.0, SVG Export Plug-In . SVG Version: 6.00 Build 0)  -->
<!DOCTYPE svg PUBLIC "-//W3C//DTD SVG 1.1//EN" "http://www.w3.org/Graphics/SVG/1.1/DTD/svg11.dtd">
<svg version="1.1" id="Layer_1" xmlns="http://www.w3.org/2000/svg" xmlns:xlink="http://www.w3.org/1999/xlink" x="0px" y="0px"
	 viewBox="0 0 53 53" enable-background="new 0 0 53 53" xml:space="preserve">
<g>
	<g>
		<g>
			<g>
				<path d="M44.8,22.9c-0.1-0.1-0.3-0.1-0.4,0l-0.6,0.6c-0.1,0.1-0.1,0.3,0,0.3l2.9,2.9c0.1,0.1,0.1,0.3,0,0.3L46,27.8
					c-0.1,0.1-0.3,0.1-0.4,0l-2.9-2.9c-0.1-0.1-0.3-0.1-0.4,0l-0.9,0.9c-0.1,0.1-0.1,0.3,0,0.4l1.2,1.1c0.1,0.1,0.1,0.3,0,0.4
					l-0.5,0.5c-0.1,0.1-0.3,0.1-0.4,0L40.5,27c-0.1-0.1-0.3-0.1-0.4,0l-0.8,0.8c-0.1,0.1-0.1,0.3,0,0.4l1.2,1.2
					c0.1,0.1,0.1,0.3,0,0.4L40,30.3c-0.1,0.1-0.3,0.1-0.4,0l-1-1.3c-0.1-0.1-0.3-0.1-0.4,0l-0.8,0.8c-0.1,0.1-0.1,0.3,0,0.4l1.2,1.2
					c0.1,0.1,0.1,0.3,0,0.4l-0.5,0.5c-0.1,0.1-0.3,0.1-0.4,0L36.6,31c-0.1-0.1-0.3-0.1-0.4,0l-1,1c-0.1,0.1-0.1,0.3,0,0.3l2.9,2.9
					c0.1,0.1,0.1,0.3,0,0.4l-0.8,0.8c-0.1,0.1-0.3,0.1-0.4,0L34,33.5c-0.1-0.1-0.3-0.1-0.3,0l-1,1.1c-0.1,0.1-0.1,0.3,0,0.4l1.2,1.2
					c0.1,0.1,0.1,0.3,0,0.3L33.4,37c-0.1,0.1-0.3,0.1-0.4,0l-1.2-1.2c-0.1-0.1-0.3-0.1-0.3,0l-0.8,0.9c-0.1,0.1-0.1,0.3,0,0.4
					l1.2,1.1c0.1,0.1,0.1,0.3,0,0.4l-0.5,0.5c-0.1,0.1-0.3,0.1-0.4,0l-1.2-1.2c-0.1-0.1-0.3-0.1-0.4,0l-0.8,0.8
					c-0.1,0.1-0.1,0.3,0,0.4l1.2,1.2c0.1,0.1,0.1,0.3,0,0.4l-0.5,0.5c-0.1,0.1-0.3,0.1-0.4,0L27.8,40c-0.1-0.1-0.3-0.1-0.4,0
					l-0.8,0.8c-0.1,0.1-0.1,0.3,0,0.3l2.9,2.9c0.1,0.1,0.1,0.3,0,0.4L28.8,45c-0.1,0.1-0.3,0.1-0.4,0l-2.9-2.9
					c-0.1-0.1-0.3-0.1-0.3,0l-0.6,0.7c-0.1,0.1-0.1,0.3,0,0.4l6.6,6.6c0.1,0.1,0.3,0.1,0.4,0l19.9-19.9c0.1-0.1,0.1-0.3,0-0.4
					L44.8,22.9z"/>
			</g>
		</g>
	</g>
	<g>
		<g>
			<path d="M36.9,15.9c-0.6-0.5-1.2-1.6-1.2-2.5V4.7c0-0.8-0.7-1.5-1.5-1.5h-3.9c-0.8,0-1.5,0.7-1.5,1.5v3.1c0,0.8-0.5,1.1-1.1,0.5
				l-4.3-3.6c-0.6-0.5-1.7-0.5-2.3,0L2.7,20.1C2,20.6,2.2,21,3,21h1.9c0.8,0,1.5,0.7,1.5,1.5v6.8c0,0.8,0,2.2,0,3v7.8
				c0,0.8,0.7,1.5,1.5,1.5h4.6c0.8,0,2.2,0,3,0h1.7c0.8,0,1.5,0,1.6,0s0.1-0.7,0.1-1.5v-6c0-0.8,0.7-1.5,1.5-1.5h4.1
				c0.8,0,1.5,0.7,1.5,1.5V37c0,0.8,0.5,1,1.1,0.4l10.2-10.2c0.6-0.6,1.1-1.7,1.1-2.6v-2.1c0-0.8,0.7-1.5,1.5-1.5h1.9
				c0.8,0,1-0.4,0.3-1L36.9,15.9z"/>
		</g>
	</g>
</g>
</svg>
