<?xml version="1.0" encoding="utf-8"?>
<!-- Generator: Adobe Illustrator 18.0.0, SVG Export Plug-In . SVG Version: 6.00 Build 0)  -->
<!DOCTYPE svg PUBLIC "-//W3C//DTD SVG 1.1//EN" "http://www.w3.org/Graphics/SVG/1.1/DTD/svg11.dtd">
<svg version="1.1" id="Layer_1" xmlns="http://www.w3.org/2000/svg" xmlns:xlink="http://www.w3.org/1999/xlink" x="0px" y="0px"
	 viewBox="0 0 53 53" enable-background="new 0 0 53 53" xml:space="preserve">
<path d="M49,18c0-4.1-10.1-7.3-22.5-7.3C14.1,10.6,4,13.9,4,18l-1.5,7.7c0,0.6,0.2,1.2,0.5,1.7c1.4-3.8,11.2-6.7,23.5-6.7
	c12.3,0,22,2.9,23.5,6.7c0.3-0.6,0.5-1.1,0.5-1.7L49,18z"/>
<path d="M26.5,21.4c-12.2,0-22.5,3.1-22.9,6.7c1.1,1.2,4.2,4.9,4.2,4.9c0,0,0,0,0,0c0.3,0.4,0.8,0.7,1.5,1.1
	c-0.1,0.2-0.2,0.4-0.2,0.6c0,0.4,2.2,3.2,2.7,3.6c0,0,0,0,0,0c-0.1,0-0.2,0.1-0.3,0.1c0,0.1,0,0.1,0,0.2c0,2,6.7,3.7,15,3.7
	c8.3,0,15-1.6,15-3.7c0-0.1,0-0.1,0-0.2c-0.1,0-0.2-0.1-0.3-0.1c0,0,0,0,0,0c0.5-0.4,2.7-3.2,2.7-3.6c0-0.2-0.1-0.4-0.2-0.6
	c0.7-0.3,1.2-0.7,1.5-1.1c0,0,0,0,0,0c0,0,3-3.7,4.2-4.9C49,24.5,38.7,21.4,26.5,21.4z M41.9,33c-1.4-0.3-1.8-0.7-2.9-0.9l0.4-1
	C40.9,31.6,41.9,32.2,41.9,33C41.9,33,41.9,33,41.9,33z M11.1,33C11.1,33,11.1,33,11.1,33c0-0.2,0.1-0.4,0.2-0.6
	c0.5-0.4,1.2-0.8,2.2-1.3c0.1,0,0.1,0,0.2-0.1l0.4,1C12.9,32.3,12.1,32.6,11.1,33z M15.2,30.5c2.6-0.6,7-1,9.9-1.1v1.4
	c-2.9,0-6.9,0.3-9.6,0.8L15.2,30.5z M25.1,33.5v2.9c-1.9,0-5.2,0.2-7.6,0.6l-1.1-2.6C18.7,33.8,22.2,33.5,25.1,33.5z M27.5,33.5
	c3.4,0.1,6.5,0.4,8.7,0.9l-0.9,2.6c-2.3-0.3-4.4-0.5-7.8-0.6V33.5z M27.5,30.9v-1.4c4.3,0.1,7.5,0.5,10.1,1.1l-0.4,1.2
	C34.5,31.2,30.8,30.9,27.5,30.9z M12.8,36.5c0-0.4,0.3-0.8,1-1.1c0.1-0.1,0.3-0.1,0.4-0.2c0.3-0.1,0.6-0.2,0.9-0.4l0.9,2.4
	c-0.8,0.1-1.5,0.3-2.1,0.5C13.1,37.4,12.8,37,12.8,36.5z M37.1,37.2l0.9-2.4c0.3,0.1,0.6,0.2,0.9,0.4c0.2,0.1,0.3,0.1,0.4,0.2
	c0.6,0.4,1,0.7,1,1.1c0,0.4-0.4,0.8-1.1,1.2C38.5,37.6,37.8,37.4,37.1,37.2z"/>
</svg>
