<?xml version="1.0" encoding="utf-8"?>
<!-- Generator: Adobe Illustrator 18.0.0, SVG Export Plug-In . SVG Version: 6.00 Build 0)  -->
<!DOCTYPE svg PUBLIC "-//W3C//DTD SVG 1.1//EN" "http://www.w3.org/Graphics/SVG/1.1/DTD/svg11.dtd">
<svg version="1.1" id="Layer_1" xmlns="http://www.w3.org/2000/svg" xmlns:xlink="http://www.w3.org/1999/xlink" x="0px" y="0px"
	 viewBox="0 0 53 53" enable-background="new 0 0 53 53" xml:space="preserve">
<path d="M35.3,33c1.7,0.9,4.1,1.1,5.6,0.3c2.1-1.1,3.7-1.5,5.3-1c0,0,0,0,0-0.1c0.1-0.6,0.6-1,1.2-0.9c0.5,0.1,0.9,0.6,0.8,1.2
	c0,0.2-0.1,0.4-0.3,0.6c0.3,0.1,0.8,0.3,1.4,0.4l0.2-1.3c0.2-1-0.6-1.7-1-1.9l-0.7-3.2c-0.1-0.6-0.5-1.2-1.4-1.3l-1.7-0.3l-2.8-0.5
	l-1.7-0.3c-0.9-0.1-1.5,0.3-1.8,0.8l-1.7,2.9c-0.5,0-1.4,0.4-1.6,1.4l-0.4,2.8C34.9,32.8,35.1,32.9,35.3,33z M39.2,26.4
	c0.2-0.3,0.4-0.5,0.8-0.5l3.1,0.5l0,0l3.1,0.5c0.4,0.1,0.5,0.3,0.6,0.7l0.5,2.5l-4.7-0.7l0,0L38,28.7L39.2,26.4z M36.4,30.7
	c0.1-0.6,0.6-1,1.2-0.9c0.6,0.1,0.9,0.6,0.8,1.2c-0.1,0.6-0.6,1-1.2,0.9C36.7,31.8,36.3,31.2,36.4,30.7z"/>
<path d="M29.8,19v-7.3c0-0.2-0.2-0.4-0.4-0.4h-4.5c-0.2,0-0.4,0.2-0.4,0.4v1.8c0,0.4-0.4,0.6-0.7,0.3L19.5,10
	c-0.2-0.1-0.4-0.1-0.6,0L4.7,22.5c-0.3,0.3-0.1,0.7,0.3,0.7h1.1c0.2,0,0.4,0.2,0.4,0.4v8.1c0,0.3,0.2,0.5,0.5,0.4c1.5-0.4,3.1,0,5,1
	c1.5,0.8,3.9,0.6,5.6-0.3c2.3-1.2,3.6-0.9,6.1,0.2c1.9,0.8,3.6,0.8,5.5,0c0.9-0.4,1.6-0.7,2.3-0.8c0.2,0,0.3-0.2,0.3-0.4v-8.2
	c0-0.2,0.2-0.4,0.4-0.4h1.1c0.4,0,0.6-0.5,0.3-0.7L30,19.3C29.9,19.2,29.8,19.1,29.8,19z"/>
<path d="M47.6,36.9c-2.1-1.3-4-1-6.7,0.3c-1.5,0.8-3.9,0.6-5.6-0.3c-2.3-1.2-3.6-0.9-6.1,0.2c-1.9,0.8-3.6,0.8-5.5,0
	C21.3,36,20,35.7,17.7,37c-1.7,0.9-4.1,1.1-5.6,0.3c-2.7-1.4-4.5-1.6-6.6-0.3c0,0-0.9,0.7-2.9,0.7v1.1v3.9V43c2,0,2.9-0.7,2.9-0.7
	c2.1-1.3,4-1,6.6,0.3c1.5,0.8,3.9,0.6,5.6-0.3c2.3-1.2,3.6-0.9,6.1,0.2c1.9,0.8,3.6,0.8,5.5,0c2.4-1.1,3.8-1.4,6.1-0.2
	c1.7,0.9,4.1,1.1,5.6,0.3c2.6-1.4,4.6-1.6,6.7-0.3c0,0,0.9,0.7,2.9,0.7v-0.3v-3.9v-1.1C48.5,37.6,47.6,36.9,47.6,36.9z"/>
</svg>
